# xmcd CD database file
#
# Track frame offsets:
#	150
#	19260
#	45450
#	77227
#	100495
#	126930
#	151457
#	169712
#	185807
#	207382
#	236180
#
# Disc length: 4440 seconds
#
# Revision: 0
# Processed by: cddbd v1.5.2PL0 Copyright (c) Steve Scherf et al.
# Submitted via: CDex 1.51
#
DISCID=9a11560b
DTITLE=Cassandra Wilson - Thunderbird
DYEAR=2006
DGENRE=Country
TTITLE0=Go To Mexico
TTITLE1=Closer To You
TTITLE2=Easy Rider
TTITLE3=It Would Be So Easy
TTITLE4=Red River Valley 
TTITLE5=Poet 
TTITLE6=I Want To Be Loved
TTITLE7=Lost 
TTITLE8=Strike a Match
TTITLE9=Tarot 
TTITLE10=Daten
EXTD=YEAR: 2006
EXTT0=
EXTT1=
EXTT2=
EXTT3=
EXTT4=
EXTT5=
EXTT6=
EXTT7=
EXTT8=
EXTT9=
EXTT10=
PLAYORDER=
